<svg width="12" height="12" viewBox="0 0 12 12" fill="none" xmlns="http://www.w3.org/2000/svg">
<path d="M5.5 10.5L3.9125 9.075C3.3125 8.53333 2.79792 8.05 2.36875 7.625C1.93958 7.2 1.58542 6.8 1.30625 6.425C1.02708 6.05 0.822917 5.6875 0.69375 5.3375C0.564583 4.9875 0.5 4.62083 0.5 4.2375C0.5 3.45417 0.7625 2.80208 1.2875 2.28125C1.8125 1.76042 2.46667 1.5 3.25 1.5C3.68333 1.5 4.09583 1.58958 4.4875 1.76875C4.87917 1.94792 5.21667 2.20417 5.5 2.5375C5.78333 2.20417 6.12083 1.94792 6.5125 1.76875C6.90417 1.58958 7.31667 1.5 7.75 1.5C8.45833 1.5 9.05208 1.71458 9.53125 2.14375C10.0104 2.57292 10.3083 3.075 10.425 3.65C10.2583 3.58333 10.0833 3.54167 9.9 3.525C9.71667 3.50833 9.52917 3.5 9.3375 3.5C8.62917 3.5 7.97917 3.78542 7.3875 4.35625C6.79583 4.92708 6.5 5.64167 6.5 6.5C6.5 6.9 6.5875 7.30625 6.7625 7.71875C6.9375 8.13125 7.18333 8.46667 7.5 8.725C7.34167 8.86667 7.13542 9.04792 6.88125 9.26875C6.62708 9.48958 6.40833 9.68333 6.225 9.85L5.5 10.5ZM8.975 8.0875L7.55 6.675L8.2625 5.975L8.975 6.675L10.7375 4.9125L11.45 5.6125L8.975 8.0875Z" fill="#0108A3"/>
</svg>
