<svg width="12" height="12" viewBox="0 0 12 12" fill="none" xmlns="http://www.w3.org/2000/svg">
<circle cx="6" cy="6" r="3" fill="white"/>
<path d="M4.40555 10.9317L3.5133 9.42791L1.81905 9.05666L1.98443 7.31253L0.836426 5.99903L1.98443 4.68553L1.81905 2.94141L3.5133 2.57016L4.40555 1.06641L5.9998 1.74328L7.59405 1.06641L8.4863 2.57016L10.1806 2.94141L10.0152 4.68553L11.1632 5.99903L10.0152 7.31253L10.1806 9.05666L8.4863 9.42791L7.59405 10.9317L5.9998 10.2548L4.40555 10.9317ZM5.4748 7.60091L8.12668 4.94903L7.5998 4.40678L5.4748 6.53178L4.3998 5.47216L3.87293 5.99903L5.4748 7.60091Z" fill="#4080FF"/>
</svg>
